HIERARCHY
ROOT joint_Root
{
	OFFSET 0.0 0.0 0.0
	CHANNELS 6 Xposition Yposition Zposition Zrotation Xrotation Yrotation 
	JOINT Hips
	{
		OFFSET 4.5925 91.4895 -427.239
		CHANNELS 6 Xposition Yposition Zposition Zrotation Xrotation Yrotation 
		JOINT Spine
		{
			OFFSET 15.7357 0.0 0.0
			CHANNELS 6 Xposition Yposition Zposition Zrotation Xrotation Yrotation 
			JOINT Chest
			{
				OFFSET 8.98455 -0.406207 0.0
				CHANNELS 6 Xposition Yposition Zposition Zrotation Xrotation Yrotation 
				JOINT Neck
				{
					OFFSET 16.3773 0.0 0.0
					CHANNELS 6 Xposition Yposition Zposition Zrotation Xrotation Yrotation 
					JOINT Head
					{
						OFFSET 6.45672 0.0 0.0
						CHANNELS 6 Xposition Yposition Zposition Zrotation Xrotation Yrotation 
						End Site
						{
							OFFSET 0.0 0.0 0.0
						}
					}
				}
				JOINT Shoulder_L
				{
					OFFSET 12.9942 -0.242716 4.98039
					CHANNELS 6 Xposition Yposition Zposition Zrotation Xrotation Yrotation 
					JOINT UpperArm_L
					{
						OFFSET 5.34809 0.0 0.0
						CHANNELS 6 Xposition Yposition Zposition Zrotation Xrotation Yrotation 
						JOINT LowerArm_L
						{
							OFFSET 24.3286 1.87007e-05 0.0
							CHANNELS 6 Xposition Yposition Zposition Zrotation Xrotation Yrotation 
							JOINT Hand_L
							{
								OFFSET 22.2916 0.0 0.0
								CHANNELS 6 Xposition Yposition Zposition Zrotation Xrotation Yrotation 
								End Site
								{
									OFFSET 0.0 0.0 0.0
								}
							}
						}
					}
				}
				JOINT Shoulder_R
				{
					OFFSET 12.9945 -0.242716 -4.98039
					CHANNELS 6 Xposition Yposition Zposition Zrotation Xrotation Yrotation 
					JOINT UpperArm_R
					{
						OFFSET -5.34813 0.0 0.0
						CHANNELS 6 Xposition Yposition Zposition Zrotation Xrotation Yrotation 
						JOINT LowerArm_R
						{
							OFFSET -24.3289 0.000322201 0.0
							CHANNELS 6 Xposition Yposition Zposition Zrotation Xrotation Yrotation 
							JOINT Hand_R
							{
								OFFSET -22.2915 -0.000108084 0.0
								CHANNELS 6 Xposition Yposition Zposition Zrotation Xrotation Yrotation 
								End Site
								{
									OFFSET 0.0 0.0 0.0
								}
							}
						}
					}
				}
			}
		}
		JOINT UpperLeg_L
		{
			OFFSET -2.19248 -6.46944 0.0
			CHANNELS 6 Xposition Yposition Zposition Zrotation Xrotation Yrotation 
			JOINT LowerLeg_L
			{
				OFFSET 39.0811 0.0 -1.23785e-05
				CHANNELS 6 Xposition Yposition Zposition Zrotation Xrotation Yrotation 
				JOINT Foot_L
				{
					OFFSET 40.9854 0.0 -1.26872e-05
					CHANNELS 6 Xposition Yposition Zposition Zrotation Xrotation Yrotation 
					JOINT Toes_L
					{
						OFFSET 11.7543 0.0 0.0
						CHANNELS 6 Xposition Yposition Zposition Zrotation Xrotation Yrotation 
						End Site
						{
							OFFSET 0.0 0.0 0.0
						}
					}
				}
			}
		}
		JOINT UpperLeg_R
		{
			OFFSET -2.19251 6.46944 0.0
			CHANNELS 6 Xposition Yposition Zposition Zrotation Xrotation Yrotation 
			JOINT LowerLeg_R
			{
				OFFSET -39.0811 -0.00228153 -0.0401928
				CHANNELS 6 Xposition Yposition Zposition Zrotation Xrotation Yrotation 
				JOINT Foot_R
				{
					OFFSET -40.9854 0.0 0.0
					CHANNELS 6 Xposition Yposition Zposition Zrotation Xrotation Yrotation 
					JOINT Toes_R
					{
						OFFSET -11.7543 0.0 0.0
						CHANNELS 6 Xposition Yposition Zposition Zrotation Xrotation Yrotation 
						End Site
						{
							OFFSET 0.0 0.0 0.0
						}
					}
				}
			}
		}
	}
}
MOTION
Frames:	4
Frame Time:	0.0333333
0.000000 0.000000 0.000000 0.000000 0.000000 -0.000000 0.277793 90.056600 0.006229 88.930700 -3.644890 10.265800 15.735700 0.000005 -0.000001 90.133900 77.458700 -90.339600 8.984550 -0.406207 -0.000000 17.316500 0.040542 -0.418240 16.377300 -0.000001 -0.000001 3.229800 -3.019660 0.702351 6.456720 -0.000001 -0.000000 -2.692030 -2.183680 0.373306 12.994200 -0.242716 4.980390 -91.277800 6.602040 -79.020300 5.348090 -0.000007 -0.000001 -54.005400 36.354400 -30.558000 24.328600 0.000019 0.000005 8.173520 19.196600 -23.596400 22.291600 -0.000001 0.000005 10.720200 5.209900 2.469750 12.994500 -0.242716 -4.980390 89.245800 10.545900 -85.885900 -5.348130 -0.000001 -0.000004 -56.159900 35.934800 -25.041900 -24.328900 0.000322 -0.000009 1.063520 2.845800 -20.520100 -22.291500 -0.000108 -0.000004 15.402700 5.419880 -3.594910 -2.192480 -6.469440 -0.000000 -173.999000 -14.215300 -1.649050 39.081100 -0.000007 -0.000012 -0.245818 0.352432 34.895800 40.985400 -0.000006 -0.000013 0.442621 4.182890 -72.554600 11.754300 -0.000000 0.000003 -0.000200 -0.001852 -16.647400 -2.192510 6.469440 -0.000001 174.028000 20.113000 179.615000 -39.081100 -0.002282 -0.040193 -0.069280 0.107724 33.968100 -40.985400 0.000008 0.000006 6.005640 12.479600 -73.381700 -11.754300 -0.000006 -0.000006 -0.001405 -0.021008 -17.427400
0.000000 0.000000 0.000000 0.000000 0.000000 -0.000000 0.247924 90.052700 -0.045480 88.948500 -3.549980 10.302400 15.735700 0.000005 -0.000001 90.108700 77.458100 -90.285500 8.984550 -0.406207 -0.000000 17.317700 0.032091 -0.359177 16.377300 -0.000001 -0.000001 3.260000 -3.069620 0.753183 6.456720 -0.000001 -0.000000 -2.682910 -2.238810 0.453282 12.994200 -0.242716 4.980390 -91.270300 6.551530 -79.002100 5.348090 -0.000007 -0.000001 -53.729500 36.117100 -30.662500 24.328600 0.000019 0.000005 8.527190 19.049700 -24.673200 22.291600 -0.000001 0.000005 10.457300 5.211600 2.426710 12.994500 -0.242716 -4.980390 89.246300 10.527000 -85.881600 -5.348130 -0.000001 -0.000004 -56.149900 35.879400 -24.997300 -24.328900 0.000322 -0.000009 1.059980 2.836170 -20.521100 -22.291500 -0.000108 -0.000004 15.392700 5.421490 -3.649370 -2.192480 -6.469440 -0.000000 -174.000000 -14.184700 -1.690700 39.081100 -0.000007 -0.000012 -0.247786 0.354765 34.932800 40.985400 -0.000006 -0.000013 0.451371 4.247200 -72.516700 11.754300 -0.000000 0.000003 -0.000189 -0.001768 -16.644400 -2.192510 6.469440 -0.000001 174.019000 20.159900 179.605000 -39.081100 -0.002282 -0.040193 -0.072863 0.112830 34.017800 -40.985400 0.000008 0.000006 6.043690 12.422100 -73.388300 -11.754300 -0.000006 -0.000006 -0.001509 -0.022393 -17.483700
0.000000 0.000000 0.000000 0.000000 0.000000 -0.000000 0.220277 90.057200 -0.095303 88.969200 -3.426870 10.375400 15.735700 0.000005 -0.000001 90.049000 77.444100 -90.185800 8.984550 -0.406207 -0.000000 17.345900 0.009716 -0.275632 16.377300 -0.000001 -0.000001 3.292230 -3.116650 0.824240 6.456720 -0.000001 -0.000000 -2.713210 -2.286190 0.510417 12.994200 -0.242716 4.980390 -91.274700 6.530750 -78.930500 5.348090 -0.000007 -0.000001 -53.519300 35.603400 -30.668600 24.328600 0.000019 0.000005 8.991530 18.710500 -26.255700 22.291600 -0.000001 0.000005 10.218600 5.212910 2.393400 12.994500 -0.242716 -4.980390 89.245500 10.496800 -85.865700 -5.348130 -0.000001 -0.000004 -56.108500 35.818700 -24.988000 -24.328900 0.000322 -0.000009 1.079790 2.897850 -20.464900 -22.291500 -0.000108 -0.000004 15.415800 5.421650 -3.654850 -2.192480 -6.469440 -0.000000 -174.001000 -14.094800 -1.663750 39.081100 -0.000007 -0.000012 -0.247020 0.353835 34.920200 40.985400 -0.000006 -0.000013 0.446840 4.297150 -72.464200 11.754300 -0.000000 0.000003 -0.000201 -0.001858 -16.647600 -2.192510 6.469440 -0.000001 174.004000 20.235000 179.660000 -39.081100 -0.002282 -0.040193 -0.066381 0.103165 34.033900 -40.985400 0.000008 0.000006 6.155400 12.347900 -73.405600 -11.754300 -0.000006 -0.000006 -0.001694 -0.024820 -17.582300
0.000000 0.000000 0.000000 0.000000 0.000000 -0.000000 0.191875 90.052500 -0.147851 89.006900 -3.338680 10.430100 15.735700 0.000005 -0.000001 90.110000 77.440400 -90.213600 8.984550 -0.406207 -0.000000 17.353100 0.038772 -0.213369 16.377300 -0.000001 -0.000001 3.347100 -3.172620 0.938716 6.456720 -0.000001 -0.000000 -2.756580 -2.349160 0.577019 12.994200 -0.242716 4.980390 -91.275500 6.476510 -78.833600 5.348090 -0.000007 -0.000001 -53.447200 34.739200 -30.604200 24.328600 0.000019 0.000005 9.626480 18.403500 -28.246700 22.291600 -0.000001 0.000005 10.105100 5.213310 2.383360 12.994500 -0.242716 -4.980390 89.237500 10.479400 -85.814800 -5.348130 -0.000001 -0.000004 -56.138700 35.678600 -24.910700 -24.328900 0.000322 -0.000009 1.105890 2.971320 -20.443300 -22.291500 -0.000108 -0.000004 15.391500 5.419260 -3.574340 -2.192480 -6.469440 -0.000000 -174.017000 -14.083300 -1.670620 39.081100 -0.000007 -0.000012 -0.247338 0.353970 34.944600 40.985400 -0.000006 -0.000013 0.447631 4.334360 -72.428800 11.754300 -0.000000 0.000003 -0.000206 -0.001901 -16.649200 -2.192510 6.469440 -0.000001 173.957000 20.253800 179.672000 -39.081100 -0.002282 -0.040193 -0.073187 0.113056 34.077700 -40.985400 0.000008 0.000006 6.066150 12.339300 -73.381800 -11.754300 -0.000006 -0.000006 -0.001720 -0.025160 -17.596200
